<svg width="20" height="21" viewBox="0 0 20 21" fill="none" xmlns="http://www.w3.org/2000/svg">
<path fill-rule="evenodd" clip-rule="evenodd" d="M1.27966 11.747L15.6247 11.747L9.35166 18.023C9.10631 18.2566 8.96744 18.5807 8.96744 18.9195C8.96744 19.2583 9.10631 19.5823 9.35166 19.816C9.58533 20.0613 9.90934 20.2002 10.2482 20.2002C10.587 20.2002 10.911 20.0613 11.1447 19.816L19.4677 11.491C19.9808 10.9044 19.9808 10.0286 19.4677 9.44197L11.1427 1.11697C10.909 0.871613 10.585 0.732746 10.2462 0.732746C9.90734 0.732746 9.58333 0.871613 9.34967 1.11697H9.34966C9.10431 1.35064 8.96544 1.67465 8.96544 2.01347C8.96544 2.35229 9.10431 2.67631 9.34966 2.90997L15.6247 9.18497L1.27966 9.18497C0.933922 9.16401 0.595772 9.29223 0.350849 9.53715C0.105923 9.78208 -0.0222969 10.1202 -0.00133514 10.466C-0.0222969 10.8117 0.105923 11.1499 0.350845 11.3948C0.595772 11.6397 0.933918 11.7679 1.27966 11.747Z" fill="#377DFF"/>
</svg>
